HIERARCHY
ROOT pelvis
{
  OFFSET 0 100 0
  CHANNELS 6 Xposition Yposition Zposition Zrotation Xrotation Yrotation
  JOINT pelvis_right_femur
  {
    OFFSET -10.78128 -3.44521 -0.5502486
    CHANNELS 3 Zrotation Xrotation Yrotation
    JOINT right_femur_tibia
    {
      OFFSET -0.8047443 -44.0398 -0.1307829
      CHANNELS 3 Zrotation Xrotation Yrotation
      JOINT right_tibia_foot
      {
        OFFSET 3.006224 -47.83518 -5
        CHANNELS 3 Zrotation Xrotation Yrotation
        End Site
        {
          OFFSET 0 -5 15
        }
      }
    }
  }
  JOINT pelvis_left_femur
  {
    OFFSET 10.78128 -3.44521 -0.5502486
    CHANNELS 3 Zrotation Xrotation Yrotation
    JOINT left_femur_tibia
    {
      OFFSET 0.8047443 -44.0398 -0.1307829
      CHANNELS 3 Zrotation Xrotation Yrotation
      JOINT left_tibia_foot
      {
        OFFSET -4.370144 -48.10324 -4.275266
        CHANNELS 3 Zrotation Xrotation Yrotation
        End Site
        {
          OFFSET 0 -5 15
        }
      }
    }
  }
  JOINT pelvis_spine1
  {
    OFFSET 0 6.468898 -3.129235
    CHANNELS 3 Zrotation Xrotation Yrotation
    JOINT spine1
    {
      OFFSET 0 23.15396 4.99043
      CHANNELS 3 Zrotation Xrotation Yrotation
      JOINT spine2
      {
        OFFSET 0 20.79997 -5.064912
        CHANNELS 3 Zrotation Xrotation Yrotation
        JOINT neck
        {
          OFFSET 0 14.38658 9.616178
          CHANNELS 3 Zrotation Xrotation Yrotation
          End Site
          {
            OFFSET 0 20 0
          }
        }
      }
      JOINT right_manubrium
      {
        OFFSET -5.722621 16.35077 3.967754
        CHANNELS 3 Zrotation Xrotation Yrotation
        JOINT right_clavicle
        {
          OFFSET -13.16364 1.694482 -4.693211
          CHANNELS 3 Zrotation Xrotation Yrotation
          JOINT right_humerus
          {
            OFFSET -28.5034 -0.3100689 -2.792744
            CHANNELS 3 Zrotation Xrotation Yrotation
            JOINT right_radius
            {
              OFFSET -25.15693 0.02248979 -1.271978
              CHANNELS 3 Zrotation Xrotation Yrotation
              End Site
              {
                OFFSET -15 0 0
              }
            }
          }
        }
      }
      JOINT left_manubrium
      {
        OFFSET 5.722621 16.35077 3.967754
        CHANNELS 3 Zrotation Xrotation Yrotation
        JOINT left_clavicle
        {
          OFFSET 13.16364 1.694482 -4.693211
          CHANNELS 3 Zrotation Xrotation Yrotation
          JOINT left_humerus
          {
            OFFSET 29.39168 -1.063119 -2.237045
            CHANNELS 3 Zrotation Xrotation Yrotation
            JOINT left_radius
            {
              OFFSET 24.59957 -0.9528479 0.9047498
              CHANNELS 3 Zrotation Xrotation Yrotation
              End Site
              {
                OFFSET 15 -0 -0
              }
            }
          }
        }
      }
    }
  }
}
MOTION
Frames: 23
Frame Time: 0.0416666666667
-37.22876 108.5643 257.4506 -10.05185 -10.81471 -33.04298 9.099042 17.67232 -1.618774 -0 19.66242 -0 -10.837 -13.78886 -3.691411 4.68718 -11.81309 -6.134484 -0 11.62125 -0 2.664013 -0.276813 20.31443 3.658908 -4.693677 5.268704 -0.07548656 16.73542 -4.680441 3.277652 22.57903 -0.6545586 -2.349748 -18.45002 5.787606 -7.607579 -32.47807 11.355 95.49522 3.305201 -7.638234 -0 0 26.85306 -23.14831 14.3852 14.67477 1.726963 -20.70776 -9.079369 -98.13939 12.43003 35.82658 -0 0 1.589375 8.961965 20.64624 -0.4780301
-39.70465 108.5541 262.5241 -10.20214 -10.67323 -33.84919 9.099042 17.67232 -1.618774 -0 19.66242 -0 -10.837 -13.78886 -3.691411 4.68718 -11.81309 -6.134484 -0 11.62125 -0 2.664013 -0.276813 20.31443 3.658908 -4.693677 5.268704 -0.07548656 16.73542 -4.680441 3.277652 22.57903 -0.6545586 -2.349748 -18.45002 5.787606 -7.607579 -32.47807 11.355 95.49522 3.305201 -7.638234 -0 0 26.85306 -23.14831 14.3852 14.67477 1.726963 -20.70776 -9.079369 -98.13939 12.43003 35.82658 -0 0 1.589375 8.961965 20.64624 -0.4780301
-42.25155 108.544 267.5624 -10.35033 -10.52969 -34.65466 9.099042 17.67232 -1.618774 -0 19.66242 -0 -10.837 -13.78886 -3.691411 4.68718 -11.81309 -6.134484 -0 11.62125 -0 2.664013 -0.276813 20.31443 3.658908 -4.693677 5.268704 -0.07548656 16.73542 -4.680441 3.277652 22.57903 -0.6545586 -2.349748 -18.45002 5.787606 -7.607579 -32.47807 11.355 95.49522 3.305201 -7.638234 -0 0 26.85306 -23.14831 14.3852 14.67477 1.726963 -20.70776 -9.079369 -98.13939 12.43003 35.82658 -0 0 1.589375 8.961965 20.64624 -0.4780301
-44.86894 108.5339 272.5644 -10.49639 -10.38411 -35.45936 9.099042 17.67232 -1.618774 -0 19.66242 -0 -10.837 -13.78886 -3.691411 4.68718 -11.81309 -6.134484 -0 11.62125 -0 2.664013 -0.276813 20.31443 3.658908 -4.693677 5.268704 -0.07548656 16.73542 -4.680441 3.277652 22.57903 -0.6545586 -2.349748 -18.45002 5.787606 -7.607579 -32.47807 11.355 95.49522 3.305201 -7.638234 -0 0 26.85306 -23.14831 14.3852 14.67477 1.726963 -20.70776 -9.079369 -98.13939 12.43003 35.82658 -0 0 1.589375 8.961965 20.64624 -0.4780301
-47.55632 108.5238 277.5291 -10.64028 -10.23654 -36.26331 9.099042 17.67232 -1.618774 -0 19.66242 -0 -10.837 -13.78886 -3.691411 4.68718 -11.81309 -6.134484 -0 11.62125 -0 2.664013 -0.276813 20.31443 3.658908 -4.693677 5.268704 -0.07548656 16.73542 -4.680441 3.277652 22.57903 -0.6545586 -2.349748 -18.45002 5.787606 -7.607579 -32.47807 11.355 95.49522 3.305201 -7.638234 -0 0 26.85306 -23.14831 14.3852 14.67477 1.726963 -20.70776 -9.079369 -98.13939 12.43003 35.82658 -0 0 1.589375 8.961965 20.64624 -0.4780301
-50.31315 108.5136 282.4556 -10.78199 -10.08699 -37.06651 9.099042 17.67232 -1.618774 -0 19.66242 -0 -10.837 -13.78886 -3.691411 4.68718 -11.81309 -6.134484 -0 11.62125 -0 2.664013 -0.276813 20.31443 3.658908 -4.693677 5.268704 -0.07548656 16.73542 -4.680441 3.277652 22.57903 -0.6545586 -2.349748 -18.45002 5.787606 -7.607579 -32.47807 11.355 95.49522 3.305201 -7.638234 -0 0 26.85306 -23.14831 14.3852 14.67477 1.726963 -20.70776 -9.079369 -98.13939 12.43003 35.82658 -0 0 1.589375 8.961965 20.64624 -0.4780301
-53.1389 108.5035 287.3429 -10.92149 -9.935504 -37.86896 9.099042 17.67232 -1.618774 -0 19.66242 -0 -10.837 -13.78886 -3.691411 4.68718 -11.81309 -6.134484 -0 11.62125 -0 2.664013 -0.276813 20.31443 3.658908 -4.693677 5.268704 -0.07548656 16.73542 -4.680441 3.277652 22.57903 -0.6545586 -2.349748 -18.45002 5.787606 -7.607579 -32.47807 11.355 95.49522 3.305201 -7.638234 -0 0 26.85306 -23.14831 14.3852 14.67477 1.726963 -20.70776 -9.079369 -98.13939 12.43003 35.82658 -0 0 1.589375 8.961965 20.64624 -0.4780301
-56.03299 108.4934 292.1901 -11.05876 -9.782109 -38.67066 9.099042 17.67232 -1.618774 -0 19.66242 -0 -10.837 -13.78886 -3.691411 4.68718 -11.81309 -6.134484 -0 11.62125 -0 2.664013 -0.276813 20.31443 3.658908 -4.693677 5.268704 -0.07548656 16.73542 -4.680441 3.277652 22.57903 -0.6545586 -2.349748 -18.45002 5.787606 -7.607579 -32.47807 11.355 95.49522 3.305201 -7.638234 -0 0 26.85306 -23.14831 14.3852 14.67477 1.726963 -20.70776 -9.079369 -98.13939 12.43003 35.82658 -0 0 1.589375 8.961965 20.64624 -0.4780301
-58.99487 108.4832 296.9961 -11.19378 -9.626838 -39.47162 9.099042 17.67232 -1.618774 -0 19.66242 -0 -10.837 -13.78886 -3.691411 4.68718 -11.81309 -6.134484 -0 11.62125 -0 2.664013 -0.276813 20.31443 3.658908 -4.693677 5.268704 -0.07548656 16.73542 -4.680441 3.277652 22.57903 -0.6545586 -2.349748 -18.45002 5.787606 -7.607579 -32.47807 11.355 95.49522 3.305201 -7.638234 -0 0 26.85306 -23.14831 14.3852 14.67477 1.726963 -20.70776 -9.079369 -98.13939 12.43003 35.82658 -0 0 1.589375 8.961965 20.64624 -0.4780301
-62.02395 108.4731 301.7601 -11.32652 -9.469722 -40.27184 9.099042 17.67232 -1.618774 -0 19.66242 -0 -10.837 -13.78886 -3.691411 4.68718 -11.81309 -6.134484 -0 11.62125 -0 2.664013 -0.276813 20.31443 3.658908 -4.693677 5.268704 -0.07548656 16.73542 -4.680441 3.277652 22.57903 -0.6545586 -2.349748 -18.45002 5.787606 -7.607579 -32.47807 11.355 95.49522 3.305201 -7.638234 -0 0 26.85306 -23.14831 14.3852 14.67477 1.726963 -20.70776 -9.079369 -98.13939 12.43003 35.82658 -0 0 1.589375 8.961965 20.64624 -0.4780301
-65.11963 108.463 306.4811 -11.45696 -9.310794 -41.07132 9.099042 17.67232 -1.618774 -0 19.66242 -0 -10.837 -13.78886 -3.691411 4.68718 -11.81309 -6.134484 -0 11.62125 -0 2.664013 -0.276813 20.31443 3.658908 -4.693677 5.268704 -0.07548656 16.73542 -4.680441 3.277652 22.57903 -0.6545586 -2.349748 -18.45002 5.787606 -7.607579 -32.47807 11.355 95.49522 3.305201 -7.638234 -0 0 26.85306 -23.14831 14.3852 14.67477 1.726963 -20.70776 -9.079369 -98.13939 12.43003 35.82658 -0 0 1.589375 8.961965 20.64624 -0.4780301
-68.28129 108.4529 311.1581 -11.58509 -9.150087 -41.87007 9.099042 17.67232 -1.618774 -0 19.66242 -0 -10.837 -13.78886 -3.691411 4.68718 -11.81309 -6.134484 -0 11.62125 -0 2.664013 -0.276813 20.31443 3.658908 -4.693677 5.268704 -0.07548656 16.73542 -4.680441 3.277652 22.57903 -0.6545586 -2.349748 -18.45002 5.787606 -7.607579 -32.47807 11.355 95.49522 3.305201 -7.638234 -0 0 26.85306 -23.14831 14.3852 14.67477 1.726963 -20.70776 -9.079369 -98.13939 12.43003 35.82658 -0 0 1.589375 8.961965 20.64624 -0.4780301
-71.50833 108.4427 315.7903 -11.71088 -8.987633 -42.66809 9.099042 17.67232 -1.618774 -0 19.66242 -0 -10.837 -13.78886 -3.691411 4.68718 -11.81309 -6.134484 -0 11.62125 -0 2.664013 -0.276813 20.31443 3.658908 -4.693677 5.268704 -0.07548656 16.73542 -4.680441 3.277652 22.57903 -0.6545586 -2.349748 -18.45002 5.787606 -7.607579 -32.47807 11.355 95.49522 3.305201 -7.638234 -0 0 26.85306 -23.14831 14.3852 14.67477 1.726963 -20.70776 -9.079369 -98.13939 12.43003 35.82658 -0 0 1.589375 8.961965 20.64624 -0.4780301
-74.80009 108.4326 320.3767 -11.83431 -8.823466 -43.4654 9.099042 17.67232 -1.618774 -0 19.66242 -0 -10.837 -13.78886 -3.691411 4.68718 -11.81309 -6.134484 -0 11.62125 -0 2.664013 -0.276813 20.31443 3.658908 -4.693677 5.268704 -0.07548656 16.73542 -4.680441 3.277652 22.57903 -0.6545586 -2.349748 -18.45002 5.787606 -7.607579 -32.47807 11.355 95.49522 3.305201 -7.638234 -0 0 26.85306 -23.14831 14.3852 14.67477 1.726963 -20.70776 -9.079369 -98.13939 12.43003 35.82658 -0 0 1.589375 8.961965 20.64624 -0.4780301
-78.15594 108.4225 324.9164 -11.95536 -8.657619 -44.26199 9.099042 17.67232 -1.618774 -0 19.66242 -0 -10.837 -13.78886 -3.691411 4.68718 -11.81309 -6.134484 -0 11.62125 -0 2.664013 -0.276813 20.31443 3.658908 -4.693677 5.268704 -0.07548656 16.73542 -4.680441 3.277652 22.57903 -0.6545586 -2.349748 -18.45002 5.787606 -7.607579 -32.47807 11.355 95.49522 3.305201 -7.638234 -0 0 26.85306 -23.14831 14.3852 14.67477 1.726963 -20.70776 -9.079369 -98.13939 12.43003 35.82658 -0 0 1.589375 8.961965 20.64624 -0.4780301
-81.5752 108.4124 329.4085 -12.07401 -8.490124 -45.05788 9.099042 17.67232 -1.618774 -0 19.66242 -0 -10.837 -13.78886 -3.691411 4.68718 -11.81309 -6.134484 -0 11.62125 -0 2.664013 -0.276813 20.31443 3.658908 -4.693677 5.268704 -0.07548656 16.73542 -4.680441 3.277652 22.57903 -0.6545586 -2.349748 -18.45002 5.787606 -7.607579 -32.47807 11.355 95.49522 3.305201 -7.638234 -0 0 26.85306 -23.14831 14.3852 14.67477 1.726963 -20.70776 -9.079369 -98.13939 12.43003 35.82658 -0 0 1.589375 8.961965 20.64624 -0.4780301
-85.05721 108.4022 333.8522 -12.19026 -8.321017 -45.85307 9.099042 17.67232 -1.618774 -0 19.66242 -0 -10.837 -13.78886 -3.691411 4.68718 -11.81309 -6.134484 -0 11.62125 -0 2.664013 -0.276813 20.31443 3.658908 -4.693677 5.268704 -0.07548656 16.73542 -4.680441 3.277652 22.57903 -0.6545586 -2.349748 -18.45002 5.787606 -7.607579 -32.47807 11.355 95.49522 3.305201 -7.638234 -0 0 26.85306 -23.14831 14.3852 14.67477 1.726963 -20.70776 -9.079369 -98.13939 12.43003 35.82658 -0 0 1.589375 8.961965 20.64624 -0.4780301
-88.60128 108.3921 338.2466 -12.30407 -8.150331 -46.64757 9.099042 17.67232 -1.618774 -0 19.66242 -0 -10.837 -13.78886 -3.691411 4.68718 -11.81309 -6.134484 -0 11.62125 -0 2.664013 -0.276813 20.31443 3.658908 -4.693677 5.268704 -0.07548656 16.73542 -4.680441 3.277652 22.57903 -0.6545586 -2.349748 -18.45002 5.787606 -7.607579 -32.47807 11.355 95.49522 3.305201 -7.638234 -0 0 26.85306 -23.14831 14.3852 14.67477 1.726963 -20.70776 -9.079369 -98.13939 12.43003 35.82658 -0 0 1.589375 8.961965 20.64624 -0.4780301
-92.20671 108.382 342.5907 -12.41543 -7.978101 -47.44139 9.099042 17.67232 -1.618774 -0 19.66242 -0 -10.837 -13.78886 -3.691411 4.68718 -11.81309 -6.134484 -0 11.62125 -0 2.664013 -0.276813 20.31443 3.658908 -4.693677 5.268704 -0.07548656 16.73542 -4.680441 3.277652 22.57903 -0.6545586 -2.349748 -18.45002 5.787606 -7.607579 -32.47807 11.355 95.49522 3.305201 -7.638234 -0 0 26.85306 -23.14831 14.3852 14.67477 1.726963 -20.70776 -9.079369 -98.13939 12.43003 35.82658 -0 0 1.589375 8.961965 20.64624 -0.4780301
-95.87279 108.3719 346.8838 -12.52432 -7.804359 -48.23454 9.099042 17.67232 -1.618774 -0 19.66242 -0 -10.837 -13.78886 -3.691411 4.68718 -11.81309 -6.134484 -0 11.62125 -0 2.664013 -0.276813 20.31443 3.658908 -4.693677 5.268704 -0.07548656 16.73542 -4.680441 3.277652 22.57903 -0.6545586 -2.349748 -18.45002 5.787606 -7.607579 -32.47807 11.355 95.49522 3.305201 -7.638234 -0 0 26.85306 -23.14831 14.3852 14.67477 1.726963 -20.70776 -9.079369 -98.13939 12.43003 35.82658 -0 0 1.589375 8.961965 20.64624 -0.4780301
-99.59879 108.3617 351.125 -12.63074 -7.629142 -49.02703 9.099042 17.67232 -1.618774 -0 19.66242 -0 -10.837 -13.78886 -3.691411 4.68718 -11.81309 -6.134484 -0 11.62125 -0 2.664013 -0.276813 20.31443 3.658908 -4.693677 5.268704 -0.07548656 16.73542 -4.680441 3.277652 22.57903 -0.6545586 -2.349748 -18.45002 5.787606 -7.607579 -32.47807 11.355 95.49522 3.305201 -7.638234 -0 0 26.85306 -23.14831 14.3852 14.67477 1.726963 -20.70776 -9.079369 -98.13939 12.43003 35.82658 -0 0 1.589375 8.961965 20.64624 -0.4780301
-103.384 108.3516 355.3134 -12.73465 -7.452484 -49.81886 9.099042 17.67232 -1.618774 -0 19.66242 -0 -10.837 -13.78886 -3.691411 4.68718 -11.81309 -6.134484 -0 11.62125 -0 2.664013 -0.276813 20.31443 3.658908 -4.693677 5.268704 -0.07548656 16.73542 -4.680441 3.277652 22.57903 -0.6545586 -2.349748 -18.45002 5.787606 -7.607579 -32.47807 11.355 95.49522 3.305201 -7.638234 -0 0 26.85306 -23.14831 14.3852 14.67477 1.726963 -20.70776 -9.079369 -98.13939 12.43003 35.82658 -0 0 1.589375 8.961965 20.64624 -0.4780301
-107.2276 108.3415 359.4483 -12.83606 -7.27442 -50.61005 9.099042 17.67232 -1.618774 -0 19.66242 -0 -10.837 -13.78886 -3.691411 4.68718 -11.81309 -6.134484 -0 11.62125 -0 2.664013 -0.276813 20.31443 3.658908 -4.693677 5.268704 -0.07548656 16.73542 -4.680441 3.277652 22.57903 -0.6545586 -2.349748 -18.45002 5.787606 -7.607579 -32.47807 11.355 95.49522 3.305201 -7.638234 -0 0 26.85306 -23.14831 14.3852 14.67477 1.726963 -20.70776 -9.079369 -98.13939 12.43003 35.82658 -0 0 1.589375 8.961965 20.64624 -0.4780301
